<svg id="Layer_1" data-name="Layer 1" xmlns="http://www.w3.org/2000/svg" viewBox="0 0 260 260"><defs><style>.cls-1{fill:#aaa;}.cls-2{fill:#fff;}</style></defs><title>FaviconWhite</title><path class="cls-1" d="M114.65,104.93h-.06l.06.65c.09,1,.17,2,.23,3h.05C114.85,107.36,114.76,106.16,114.65,104.93Z"/><path class="cls-2" d="M221.92,38.08A130,130,0,0,0,38.07,221.93,130,130,0,1,0,221.92,38.08ZM45.23,49.71c6.21-5.65,14.68,4,18.62,10.32-.4,1.37-.75,2.68-1.06,3.9,0,.11-.06.23-.08.34-3.19-6.56-7.74-11.74-13-11.92-8.53-.27-16.9,15.27-17.2,15.83C32.67,67.76,35.49,58.57,45.23,49.71Zm5.83,116.54c.18-.38,2.25-1.22,2.37-1.48l3.85-1.88L54.47,162c-3.58-1.2-13.13-2.88-14.73-4.52l11.33-34.81a3.42,3.42,0,0,1,3.6,3.2c1.89,5.33,4.32,14,12.63,20.07a23.19,23.19,0,0,0,16.65,3c7-1.49,8.22-3.2,12.48-7.45,9-12.15,4.23-20.62,6.35-30.94l12.1-1.94c-.06-1-.14-2-.23-3l-.06-.65c-6.13.63-9.35,1-12.4,1.5-2-11.23-48.28-3.15-46.32,8.07-2.71.49-12.94,1.66-12.94,1.66-.12-2-2.46-3.1-5.85-3.59.13-.76.27-1.56.41-2.39s.27-1.71.4-2.6v-.06c.06-.54.61-5.29.7-8.13v-.2c0-.14-.56-13.88,6.68-20.33,3.19-2.86,7.6-3.85,13.1-3,.21,0,.48.11.72.18l.57.15,1.66.42,1.07-1.35a25.57,25.57,0,0,1,3.07-3c6.5-3.6,18.6-8.8,29.72-5.36,13.31,4.1,17.94,22.33,19.4,38h.06c.11,1.23.2,2.43.28,3.62h-.05c0,.22,0,.44.05.65a151,151,0,0,1-.07,19.84s9.81,1.23,14.1,21.19c2.25,10.49,7,17.39,11,24.46-1.49,1.78-4,4.37-6,6.33C121.64,192.85,101,204.79,78.7,213c-5.31,1.94-9.09-.81-11.71-2.77M33.1,101.47h0c-.08,1-.19,2.18-.29,3.2-8.7-10.27-4.33-23.91-4.33-23.91A42.43,42.43,0,0,0,33.1,101.47Zm-.87-39.69a59.46,59.46,0,0,0-8.6,31.67c0,6.74,3.78,11.93,8.57,15.8a.22.22,0,0,1,0,.08c-.17,1-.35,2-.52,3-7.21.16-16,2.09-20.26,5A118.52,118.52,0,0,1,32.23,61.78ZM63.54,217.25a13.27,13.27,0,0,0,8.15,2.53A25.83,25.83,0,0,0,80.55,218c23.28-8.53,44.11-20.59,57.13-33.1,1.27-1.22,3.3-3.23,5-5.15a40.89,40.89,0,0,1,4.41,18.75c0,12.89,40.81,8.24,59.08,1,7.26-2.85,14.3-2.36,21.36-1A119.23,119.23,0,0,1,11.48,143.3c3.14,8.95,8.88,16.9,18.48,15.5A4.51,4.51,0,0,0,34,157.38a5,5,0,0,0,.23,1.12c1,3.47,3.4,4.65,11,7.3M237.1,182.45c-13.29-1.17-25.6-3-32.5-3.48-8.77-.54-18.36,6.77-35.66,4.34-8-1.12-2.43-18.16-16.1-20.53-14.77-2.55-9.09-53.15-16-54.38-13.31-2.36-12.51-33.15-33.37-48.63C90,49.75,74.29,55.43,68.71,64c2.86-8.13,13.62-29.61,30.7-16.9,20.78,15.47,28.39,46.41,41.06,51,19.19,6.94,12.91,43.4,28.87,48.37,10.93,3.4,4.93,12,14.35,16s26-2.24,33.32,1.93c6.44,3.65,12.7,10.06,23,11.7Q238.63,179.33,237.1,182.45Zm-57.76-74.59c8.32,4.28,21.48-.15,27.93,2.44s8,13.08,12.93,18,12.07,6.94,16.68,12.49c3.52,4.25,6.67,12.84,8.61,19-.26,1-.53,2-.81,3-3.16-4.63-8.07-12-10.2-16.19-5.69-11.88-29.59-8.59-31.87-11.46s1.76-11.3-3.58-13.27-18.36-2.93-23.15-4.86c-2.92-1.18-25.73-36.35-43.1-63.63-10.65-12.09-13.64-23.06-29.87-25.82C87,24.84,71,41.73,65.46,55.27,61.14,49,53,42.49,45.24,46.19a119.2,119.2,0,0,1,204,83.81c0,1.53,0,3-.09,4.56a44.81,44.81,0,0,1-9.11-3.55c-18.88-9.91-21.13-27.07-30.13-30.25S188.5,96,159.29,77.37a97.76,97.76,0,0,1-15.12-11.94C159,85.47,174.44,105.35,179.34,107.86Z"/></svg>